<?xml version="1.0" encoding="UTF-8" standalone="no"?>
<!DOCTYPE svg PUBLIC "-//W3C//DTD SVG 1.1//EN"
 "http://www.w3.org/Graphics/SVG/1.1/DTD/svg11.dtd">
<!-- Generated by graphviz version 2.40.1 (20161225.0304)
 -->
<!-- Title: UmlClassDiagram Pages: 1 -->
<svg width="1752pt" height="802pt"
 viewBox="0.00 0.00 1751.66 802.20" xmlns="http://www.w3.org/2000/svg" xmlns:xlink="http://www.w3.org/1999/xlink">
<g id="graph0" class="graph" transform="scale(1 1) rotate(0) translate(4 798.2)">
<title>UmlClassDiagram</title>
<polygon fill="#ffffff" stroke="transparent" points="-4,4 -4,-798.2 1747.6616,-798.2 1747.6616,4 -4,4"/>
<!-- 0 -->
<g id="node1" class="node">
<title>0</title>
<polygon fill="#f2f2f2" stroke="#000000" points="803.4544,-120.7 803.4544,-379.9 1743.6616,-379.9 1743.6616,-120.7 803.4544,-120.7"/>
<text text-anchor="middle" x="1273.558" y="-363.3" font-family="Times,serif" font-size="14.00" fill="#000000">ExamPool</text>
<polyline fill="none" stroke="#000000" points="803.4544,-355.1 1743.6616,-355.1 "/>
<text text-anchor="start" x="811.4544" y="-338.5" font-family="Times,serif" font-size="14.00" fill="#000000">Public:</text>
<text text-anchor="start" x="811.4544" y="-321.7" font-family="Times,serif" font-size="14.00" fill="#000000"> &#160;&#160;admin: mapping(address=&gt;bool)</text>
<text text-anchor="start" x="811.4544" y="-304.9" font-family="Times,serif" font-size="14.00" fill="#000000"> &#160;&#160;deployedExamsOfUsers: mapping(address=&gt;address[])</text>
<text text-anchor="start" x="811.4544" y="-288.1" font-family="Times,serif" font-size="14.00" fill="#000000"> &#160;&#160;descriptionOfDeployedExams: mapping(address=&gt;string)</text>
<text text-anchor="start" x="811.4544" y="-271.3" font-family="Times,serif" font-size="14.00" fill="#000000"> &#160;&#160;profs: mapping(address=&gt;bool)</text>
<text text-anchor="start" x="811.4544" y="-254.5" font-family="Times,serif" font-size="14.00" fill="#000000"> &#160;&#160;students: mapping(address=&gt;bool)</text>
<polyline fill="none" stroke="#000000" points="803.4544,-246.3 1743.6616,-246.3 "/>
<text text-anchor="start" x="811.4544" y="-229.7" font-family="Times,serif" font-size="14.00" fill="#000000">Public:</text>
<text text-anchor="start" x="811.4544" y="-212.9" font-family="Times,serif" font-size="14.00" fill="#000000"> &#160;&#160;&#160;&lt;&lt;modifier&gt;&gt; restrictedToAdmin()</text>
<text text-anchor="start" x="811.4544" y="-196.1" font-family="Times,serif" font-size="14.00" fill="#000000"> &#160;&#160;&#160;createExam(_description: string, _typeOfWork: string, _typeOfSubmission: uint8, _subject: string, _submissionTime: uint, _student: address, _professor: address)</text>
<text text-anchor="start" x="811.4544" y="-179.3" font-family="Times,serif" font-size="14.00" fill="#000000"> &#160;&#160;&#160;getExamsOfUser(_user: address): address[]</text>
<text text-anchor="start" x="811.4544" y="-162.5" font-family="Times,serif" font-size="14.00" fill="#000000"> &#160;&#160;&#160;getExamsDescriptionsOfUser(_exam: address): string</text>
<text text-anchor="start" x="811.4544" y="-145.7" font-family="Times,serif" font-size="14.00" fill="#000000"> &#160;&#160;&#160;createUser(_type: int8, _userAddress: address)</text>
<text text-anchor="start" x="811.4544" y="-128.9" font-family="Times,serif" font-size="14.00" fill="#000000"> &#160;&#160;&#160;createAdmin()</text>
</g>
<!-- 1 -->
<g id="node3" class="node">
<title>1</title>
<polygon fill="#f2f2f2" stroke="#000000" points="0,-416.9 0,-793.7 937.116,-793.7 937.116,-416.9 0,-416.9"/>
<text text-anchor="middle" x="468.558" y="-777.1" font-family="Times,serif" font-size="14.00" fill="#000000">ExamSubmission</text>
<polyline fill="none" stroke="#000000" points="0,-768.9 937.116,-768.9 "/>
<text text-anchor="start" x="8" y="-752.3" font-family="Times,serif" font-size="14.00" fill="#000000">Public:</text>
<text text-anchor="start" x="8" y="-735.5" font-family="Times,serif" font-size="14.00" fill="#000000"> &#160;&#160;exam: ExamDetails</text>
<text text-anchor="start" x="8" y="-718.7" font-family="Times,serif" font-size="14.00" fill="#000000"> &#160;&#160;fileData: Data</text>
<polyline fill="none" stroke="#000000" points="0,-710.5 937.116,-710.5 "/>
<text text-anchor="start" x="8" y="-693.9" font-family="Times,serif" font-size="14.00" fill="#000000">Private:</text>
<text text-anchor="start" x="8" y="-677.1" font-family="Times,serif" font-size="14.00" fill="#000000"> &#160;&#160;&#160;createExam(_description: string, _typeOfWork: string, _typeOfSubmission: uint8, _subject: string, _submissionTime: uint, _student: address, _prof: address)</text>
<text text-anchor="start" x="8" y="-660.3" font-family="Times,serif" font-size="14.00" fill="#000000"> &#160;&#160;&#160;setStatusOfExam(status: ExamStatus)</text>
<text text-anchor="start" x="8" y="-643.5" font-family="Times,serif" font-size="14.00" fill="#000000"> &#160;&#160;&#160;setComment(_comment: string)</text>
<text text-anchor="start" x="8" y="-626.7" font-family="Times,serif" font-size="14.00" fill="#000000">Public:</text>
<text text-anchor="start" x="8" y="-609.9" font-family="Times,serif" font-size="14.00" fill="#000000"> &#160;&#160;&#160;&lt;&lt;modifier&gt;&gt; restrictedToProf()</text>
<text text-anchor="start" x="8" y="-593.1" font-family="Times,serif" font-size="14.00" fill="#000000"> &#160;&#160;&#160;&lt;&lt;modifier&gt;&gt; restrictedToStudent()</text>
<text text-anchor="start" x="8" y="-576.3" font-family="Times,serif" font-size="14.00" fill="#000000"> &#160;&#160;&#160;constructor(_description: string, _typeOfWork: string, _typeOfSubmission: uint8, _subject: string, _submissionTime: uint, _student: address, _professor: address)</text>
<text text-anchor="start" x="8" y="-559.5" font-family="Times,serif" font-size="14.00" fill="#000000"> &#160;&#160;&#160;getStudent(): address</text>
<text text-anchor="start" x="8" y="-542.7" font-family="Times,serif" font-size="14.00" fill="#000000"> &#160;&#160;&#160;getProf(): address</text>
<text text-anchor="start" x="8" y="-525.9" font-family="Times,serif" font-size="14.00" fill="#000000"> &#160;&#160;&#160;getDetailsOfExam(): (string, string, string, uint, uint, uint, string, address, address, ExamStatus)</text>
<text text-anchor="start" x="8" y="-509.1" font-family="Times,serif" font-size="14.00" fill="#000000"> &#160;&#160;&#160;getTimestampOfExamProcess(): (uint, uint, uint, uint)</text>
<text text-anchor="start" x="8" y="-492.3" font-family="Times,serif" font-size="14.00" fill="#000000"> &#160;&#160;&#160;submitExam(_name: string, _input: string)</text>
<text text-anchor="start" x="8" y="-475.5" font-family="Times,serif" font-size="14.00" fill="#000000"> &#160;&#160;&#160;getTypeOfSubmit(): uint</text>
<text text-anchor="start" x="8" y="-458.7" font-family="Times,serif" font-size="14.00" fill="#000000"> &#160;&#160;&#160;downloadExam(): string</text>
<text text-anchor="start" x="8" y="-441.9" font-family="Times,serif" font-size="14.00" fill="#000000"> &#160;&#160;&#160;setGradeAndComment(_grade: uint, _comment: string)</text>
<text text-anchor="start" x="8" y="-425.1" font-family="Times,serif" font-size="14.00" fill="#000000"> &#160;&#160;&#160;setStatusInCorrection()</text>
</g>
<!-- 0&#45;&gt;1 -->
<g id="edge7" class="edge">
<title>0&#45;&gt;1</title>
<path fill="none" stroke="#000000" stroke-dasharray="5,2" d="M979.5175,-379.9701C955.2166,-390.6866 930.3457,-401.6545 905.2967,-412.7009"/>
<polygon fill="#000000" stroke="#000000" points="903.7983,-409.5364 896.0608,-416.7739 906.6229,-415.9413 903.7983,-409.5364"/>
</g>
<!-- 0enum0 -->
<g id="node2" class="node">
<title>0enum0</title>
<polygon fill="#f2f2f2" stroke="#000000" points="1234.2162,-.5 1234.2162,-83.7 1312.8998,-83.7 1312.8998,-.5 1234.2162,-.5"/>
<text text-anchor="middle" x="1273.558" y="-67.1" font-family="Times,serif" font-size="14.00" fill="#000000">&lt;&lt;enum&gt;&gt;</text>
<text text-anchor="middle" x="1273.558" y="-50.3" font-family="Times,serif" font-size="14.00" fill="#000000">UserType</text>
<polyline fill="none" stroke="#000000" points="1234.2162,-42.1 1312.8998,-42.1 "/>
<text text-anchor="start" x="1242.2162" y="-25.5" font-family="Times,serif" font-size="14.00" fill="#000000">Professor</text>
<text text-anchor="start" x="1242.2162" y="-8.7" font-family="Times,serif" font-size="14.00" fill="#000000">Student</text>
</g>
<!-- 0enum0&#45;&gt;0 -->
<g id="edge1" class="edge">
<title>0enum0&#45;&gt;0</title>
<path fill="none" stroke="#000000" d="M1273.558,-83.732C1273.558,-91.3193 1273.558,-99.6092 1273.558,-108.3079"/>
<polygon fill="#000000" stroke="#000000" points="1273.5581,-108.3955 1277.558,-114.3955 1273.558,-120.3955 1269.558,-114.3955 1273.5581,-108.3955"/>
</g>
<!-- 1struct0 -->
<g id="node4" class="node">
<title>1struct0</title>
<polygon fill="#f2f2f2" stroke="#000000" points="46.865,-124.7 46.865,-375.9 246.251,-375.9 246.251,-124.7 46.865,-124.7"/>
<text text-anchor="middle" x="146.558" y="-359.3" font-family="Times,serif" font-size="14.00" fill="#000000">&lt;&lt;struct&gt;&gt;</text>
<text text-anchor="middle" x="146.558" y="-342.5" font-family="Times,serif" font-size="14.00" fill="#000000">ExamDetails</text>
<polyline fill="none" stroke="#000000" points="46.865,-334.3 246.251,-334.3 "/>
<text text-anchor="start" x="54.865" y="-317.7" font-family="Times,serif" font-size="14.00" fill="#000000">description: string</text>
<text text-anchor="start" x="54.865" y="-300.9" font-family="Times,serif" font-size="14.00" fill="#000000">subject: string</text>
<text text-anchor="start" x="54.865" y="-284.1" font-family="Times,serif" font-size="14.00" fill="#000000">typeOfWork: string</text>
<text text-anchor="start" x="54.865" y="-267.3" font-family="Times,serif" font-size="14.00" fill="#000000">typeOfSubmission: uint8</text>
<text text-anchor="start" x="54.865" y="-250.5" font-family="Times,serif" font-size="14.00" fill="#000000">submissionTime: uint</text>
<text text-anchor="start" x="54.865" y="-233.7" font-family="Times,serif" font-size="14.00" fill="#000000">grade: uint</text>
<text text-anchor="start" x="54.865" y="-216.9" font-family="Times,serif" font-size="14.00" fill="#000000">comment: string</text>
<text text-anchor="start" x="54.865" y="-200.1" font-family="Times,serif" font-size="14.00" fill="#000000">student: address</text>
<text text-anchor="start" x="54.865" y="-183.3" font-family="Times,serif" font-size="14.00" fill="#000000">prof: address</text>
<text text-anchor="start" x="54.865" y="-166.5" font-family="Times,serif" font-size="14.00" fill="#000000">status: ExamStatus</text>
<text text-anchor="start" x="54.865" y="-149.7" font-family="Times,serif" font-size="14.00" fill="#000000">timestamp: mapping(uint=&gt;uint)</text>
<text text-anchor="start" x="54.865" y="-132.9" font-family="Times,serif" font-size="14.00" fill="#000000">data: Data</text>
</g>
<!-- 1struct0&#45;&gt;1 -->
<g id="edge2" class="edge">
<title>1struct0&#45;&gt;1</title>
<path fill="none" stroke="#000000" d="M246.3041,-371.0411C249.0726,-374.2039 251.8274,-377.3285 254.558,-380.4 262.6312,-389.4812 270.9422,-398.7072 279.3865,-407.982"/>
<polygon fill="#000000" stroke="#000000" points="279.4267,-408.0261 286.4267,-409.7584 287.52,-416.8861 280.52,-415.1538 279.4267,-408.0261"/>
</g>
<!-- 1struct1 -->
<g id="node5" class="node">
<title>1struct1</title>
<polygon fill="#f2f2f2" stroke="#000000" points="263.9798,-208.7 263.9798,-291.9 407.1362,-291.9 407.1362,-208.7 263.9798,-208.7"/>
<text text-anchor="middle" x="335.558" y="-275.3" font-family="Times,serif" font-size="14.00" fill="#000000">&lt;&lt;struct&gt;&gt;</text>
<text text-anchor="middle" x="335.558" y="-258.5" font-family="Times,serif" font-size="14.00" fill="#000000">Data</text>
<polyline fill="none" stroke="#000000" points="263.9798,-250.3 407.1362,-250.3 "/>
<text text-anchor="start" x="271.9798" y="-233.7" font-family="Times,serif" font-size="14.00" fill="#000000">nameOfData: string</text>
<text text-anchor="start" x="271.9798" y="-216.9" font-family="Times,serif" font-size="14.00" fill="#000000">ipfshashORlink: string</text>
</g>
<!-- 1struct1&#45;&gt;1 -->
<g id="edge3" class="edge">
<title>1struct1&#45;&gt;1</title>
<path fill="none" stroke="#000000" d="M351.2059,-292.0669C362.134,-321.2359 377.6067,-362.5352 393.7429,-405.6056"/>
<polygon fill="#000000" stroke="#000000" points="393.7593,-405.6495 399.6101,-409.8647 397.9694,-416.8867 392.1186,-412.6715 393.7593,-405.6495"/>
</g>
<!-- 1enum0 -->
<g id="node6" class="node">
<title>1enum0</title>
<polygon fill="#f2f2f2" stroke="#000000" points="424.7936,-191.9 424.7936,-308.7 512.3224,-308.7 512.3224,-191.9 424.7936,-191.9"/>
<text text-anchor="middle" x="468.558" y="-292.1" font-family="Times,serif" font-size="14.00" fill="#000000">&lt;&lt;enum&gt;&gt;</text>
<text text-anchor="middle" x="468.558" y="-275.3" font-family="Times,serif" font-size="14.00" fill="#000000">ExamStatus</text>
<polyline fill="none" stroke="#000000" points="424.7936,-267.1 512.3224,-267.1 "/>
<text text-anchor="start" x="432.7936" y="-250.5" font-family="Times,serif" font-size="14.00" fill="#000000">ToSubmit</text>
<text text-anchor="start" x="432.7936" y="-233.7" font-family="Times,serif" font-size="14.00" fill="#000000">Submitted</text>
<text text-anchor="start" x="432.7936" y="-216.9" font-family="Times,serif" font-size="14.00" fill="#000000">InCorrection</text>
<text text-anchor="start" x="432.7936" y="-200.1" font-family="Times,serif" font-size="14.00" fill="#000000">Corrected</text>
</g>
<!-- 1enum0&#45;&gt;1 -->
<g id="edge4" class="edge">
<title>1enum0&#45;&gt;1</title>
<path fill="none" stroke="#000000" d="M468.558,-308.921C468.558,-335.7859 468.558,-369.3748 468.558,-404.1975"/>
<polygon fill="#000000" stroke="#000000" points="468.5581,-404.5572 472.558,-410.5572 468.558,-416.5572 464.558,-410.5572 468.5581,-404.5572"/>
</g>
<!-- 1enum1 -->
<g id="node7" class="node">
<title>1enum1</title>
<polygon fill="#f2f2f2" stroke="#000000" points="530.7347,-183.5 530.7347,-317.1 642.3813,-317.1 642.3813,-183.5 530.7347,-183.5"/>
<text text-anchor="middle" x="586.558" y="-300.5" font-family="Times,serif" font-size="14.00" fill="#000000">&lt;&lt;enum&gt;&gt;</text>
<text text-anchor="middle" x="586.558" y="-283.7" font-family="Times,serif" font-size="14.00" fill="#000000">ExamTimestamp</text>
<polyline fill="none" stroke="#000000" points="530.7347,-275.5 642.3813,-275.5 "/>
<text text-anchor="start" x="538.7347" y="-258.9" font-family="Times,serif" font-size="14.00" fill="#000000">CreatedOn</text>
<text text-anchor="start" x="538.7347" y="-242.1" font-family="Times,serif" font-size="14.00" fill="#000000">UploadedOn</text>
<text text-anchor="start" x="538.7347" y="-225.3" font-family="Times,serif" font-size="14.00" fill="#000000">InCorrectionOn</text>
<text text-anchor="start" x="538.7347" y="-208.5" font-family="Times,serif" font-size="14.00" fill="#000000">GradedOn</text>
<text text-anchor="start" x="538.7347" y="-191.7" font-family="Times,serif" font-size="14.00" fill="#000000">CommentedOn</text>
</g>
<!-- 1enum1&#45;&gt;1 -->
<g id="edge5" class="edge">
<title>1enum1&#45;&gt;1</title>
<path fill="none" stroke="#000000" d="M564.2244,-317.4901C555.7446,-343.0014 545.5906,-373.5494 535.1134,-405.0697"/>
<polygon fill="#000000" stroke="#000000" points="535.0265,-405.3315 536.9297,-412.2869 531.2413,-416.7189 529.3381,-409.7635 535.0265,-405.3315"/>
</g>
<!-- 1enum2 -->
<g id="node8" class="node">
<title>1enum2</title>
<polygon fill="#f2f2f2" stroke="#000000" points="660.119,-208.7 660.119,-291.9 784.997,-291.9 784.997,-208.7 660.119,-208.7"/>
<text text-anchor="middle" x="722.558" y="-275.3" font-family="Times,serif" font-size="14.00" fill="#000000">&lt;&lt;enum&gt;&gt;</text>
<text text-anchor="middle" x="722.558" y="-258.5" font-family="Times,serif" font-size="14.00" fill="#000000">TypeOfSubmission</text>
<polyline fill="none" stroke="#000000" points="660.119,-250.3 784.997,-250.3 "/>
<text text-anchor="start" x="668.119" y="-233.7" font-family="Times,serif" font-size="14.00" fill="#000000">Upload</text>
<text text-anchor="start" x="668.119" y="-216.9" font-family="Times,serif" font-size="14.00" fill="#000000">Link</text>
</g>
<!-- 1enum2&#45;&gt;1 -->
<g id="edge6" class="edge">
<title>1enum2&#45;&gt;1</title>
<path fill="none" stroke="#000000" d="M702.1987,-292.1584C688.9152,-318.2375 670.5634,-352.0945 651.558,-380.4 645.6966,-389.1297 639.5733,-397.9321 633.2698,-406.7373"/>
<polygon fill="#000000" stroke="#000000" points="633.1139,-406.953 632.8384,-414.1589 626.0809,-416.6761 626.3564,-409.4702 633.1139,-406.953"/>
</g>
</g>
</svg>
