<?xml version="1.0" encoding="UTF-8" standalone="no"?>
<!DOCTYPE svg PUBLIC "-//W3C//DTD SVG 1.1//EN"
 "http://www.w3.org/Graphics/SVG/1.1/DTD/svg11.dtd">
<!-- Generated by graphviz version 2.40.1 (20161225.0304)
 -->
<!-- Title: UmlClassDiagram Pages: 1 -->
<svg width="1779pt" height="802pt"
 viewBox="0.00 0.00 1779.30 802.20" xmlns="http://www.w3.org/2000/svg" xmlns:xlink="http://www.w3.org/1999/xlink">
<g id="graph0" class="graph" transform="scale(1 1) rotate(0) translate(4 798.2)">
<title>UmlClassDiagram</title>
<polygon fill="#ffffff" stroke="transparent" points="-4,4 -4,-798.2 1775.304,-798.2 1775.304,4 -4,4"/>
<!-- 0 -->
<g id="node1" class="node">
<title>0</title>
<polygon fill="#f2f2f2" stroke="#000000" points="812.4544,-120.7 812.4544,-379.9 1771.304,-379.9 1771.304,-120.7 812.4544,-120.7"/>
<text text-anchor="middle" x="1291.8792" y="-363.3" font-family="Times,serif" font-size="14.00" fill="#000000">ExamPool</text>
<polyline fill="none" stroke="#000000" points="812.4544,-355.1 1771.304,-355.1 "/>
<text text-anchor="start" x="820.4544" y="-338.5" font-family="Times,serif" font-size="14.00" fill="#000000">Public:</text>
<text text-anchor="start" x="820.4544" y="-321.7" font-family="Times,serif" font-size="14.00" fill="#000000"> &#160;&#160;admin: mapping(address=&gt;bool)</text>
<text text-anchor="start" x="820.4544" y="-304.9" font-family="Times,serif" font-size="14.00" fill="#000000"> &#160;&#160;deployedExamsOfUsers: mapping(address=&gt;address[])</text>
<text text-anchor="start" x="820.4544" y="-288.1" font-family="Times,serif" font-size="14.00" fill="#000000"> &#160;&#160;descriptionOfDeployedExams: mapping(address=&gt;string[])</text>
<text text-anchor="start" x="820.4544" y="-271.3" font-family="Times,serif" font-size="14.00" fill="#000000"> &#160;&#160;profs: mapping(address=&gt;bool)</text>
<text text-anchor="start" x="820.4544" y="-254.5" font-family="Times,serif" font-size="14.00" fill="#000000"> &#160;&#160;students: mapping(address=&gt;bool)</text>
<polyline fill="none" stroke="#000000" points="812.4544,-246.3 1771.304,-246.3 "/>
<text text-anchor="start" x="820.4544" y="-229.7" font-family="Times,serif" font-size="14.00" fill="#000000">Public:</text>
<text text-anchor="start" x="820.4544" y="-212.9" font-family="Times,serif" font-size="14.00" fill="#000000"> &#160;&#160;&#160;&lt;&lt;modifier&gt;&gt; restrictedToAdmin()</text>
<text text-anchor="start" x="820.4544" y="-196.1" font-family="Times,serif" font-size="14.00" fill="#000000"> &#160;&#160;&#160;createExam(_description: string, _typeOfWork: string, _typeOfSubmission: uint8, _subject: string, _submissionTime: uint, _student: address[], _professor: address[])</text>
<text text-anchor="start" x="820.4544" y="-179.3" font-family="Times,serif" font-size="14.00" fill="#000000"> &#160;&#160;&#160;getExamsOfUser(_user: address): address[]</text>
<text text-anchor="start" x="820.4544" y="-162.5" font-family="Times,serif" font-size="14.00" fill="#000000"> &#160;&#160;&#160;getExamsDescriptionsOfUser(_user: address): string[]</text>
<text text-anchor="start" x="820.4544" y="-145.7" font-family="Times,serif" font-size="14.00" fill="#000000"> &#160;&#160;&#160;createUser(_type: int8, _userAddress: address)</text>
<text text-anchor="start" x="820.4544" y="-128.9" font-family="Times,serif" font-size="14.00" fill="#000000"> &#160;&#160;&#160;createAdmin()</text>
</g>
<!-- 1 -->
<g id="node3" class="node">
<title>1</title>
<polygon fill="#f2f2f2" stroke="#000000" points="0,-416.9 0,-793.7 955.7584,-793.7 955.7584,-416.9 0,-416.9"/>
<text text-anchor="middle" x="477.8792" y="-777.1" font-family="Times,serif" font-size="14.00" fill="#000000">ExamSubmission</text>
<polyline fill="none" stroke="#000000" points="0,-768.9 955.7584,-768.9 "/>
<text text-anchor="start" x="8" y="-752.3" font-family="Times,serif" font-size="14.00" fill="#000000">Public:</text>
<text text-anchor="start" x="8" y="-735.5" font-family="Times,serif" font-size="14.00" fill="#000000"> &#160;&#160;exam: ExamDetails</text>
<text text-anchor="start" x="8" y="-718.7" font-family="Times,serif" font-size="14.00" fill="#000000"> &#160;&#160;fileData: Data</text>
<polyline fill="none" stroke="#000000" points="0,-710.5 955.7584,-710.5 "/>
<text text-anchor="start" x="8" y="-693.9" font-family="Times,serif" font-size="14.00" fill="#000000">Private:</text>
<text text-anchor="start" x="8" y="-677.1" font-family="Times,serif" font-size="14.00" fill="#000000"> &#160;&#160;&#160;createExam(_description: string, _typeOfWork: string, _typeOfSubmission: uint8, _subject: string, _submissionTime: uint, _student: address[], _prof: address[])</text>
<text text-anchor="start" x="8" y="-660.3" font-family="Times,serif" font-size="14.00" fill="#000000"> &#160;&#160;&#160;setStatusOfExam(status: ExamStatus)</text>
<text text-anchor="start" x="8" y="-643.5" font-family="Times,serif" font-size="14.00" fill="#000000"> &#160;&#160;&#160;setComment(_comment: string)</text>
<text text-anchor="start" x="8" y="-626.7" font-family="Times,serif" font-size="14.00" fill="#000000">Public:</text>
<text text-anchor="start" x="8" y="-609.9" font-family="Times,serif" font-size="14.00" fill="#000000"> &#160;&#160;&#160;&lt;&lt;modifier&gt;&gt; restrictedToProf()</text>
<text text-anchor="start" x="8" y="-593.1" font-family="Times,serif" font-size="14.00" fill="#000000"> &#160;&#160;&#160;&lt;&lt;modifier&gt;&gt; restrictedToStudent()</text>
<text text-anchor="start" x="8" y="-576.3" font-family="Times,serif" font-size="14.00" fill="#000000"> &#160;&#160;&#160;constructor(_description: string, _typeOfWork: string, _typeOfSubmission: uint8, _subject: string, _submissionTime: uint, _student: address[], _professor: address[])</text>
<text text-anchor="start" x="8" y="-559.5" font-family="Times,serif" font-size="14.00" fill="#000000"> &#160;&#160;&#160;getStudent(): address[]</text>
<text text-anchor="start" x="8" y="-542.7" font-family="Times,serif" font-size="14.00" fill="#000000"> &#160;&#160;&#160;getProf(): address[]</text>
<text text-anchor="start" x="8" y="-525.9" font-family="Times,serif" font-size="14.00" fill="#000000"> &#160;&#160;&#160;getDetailsOfExam(): (string, string, string, uint, uint, uint, string, address[], address[], ExamStatus)</text>
<text text-anchor="start" x="8" y="-509.1" font-family="Times,serif" font-size="14.00" fill="#000000"> &#160;&#160;&#160;getTimestampOfExamProcess(): (uint, uint, uint, uint)</text>
<text text-anchor="start" x="8" y="-492.3" font-family="Times,serif" font-size="14.00" fill="#000000"> &#160;&#160;&#160;submitExam(_name: string, _input: string)</text>
<text text-anchor="start" x="8" y="-475.5" font-family="Times,serif" font-size="14.00" fill="#000000"> &#160;&#160;&#160;getTypeOfSubmit(): uint</text>
<text text-anchor="start" x="8" y="-458.7" font-family="Times,serif" font-size="14.00" fill="#000000"> &#160;&#160;&#160;downloadExam(): string</text>
<text text-anchor="start" x="8" y="-441.9" font-family="Times,serif" font-size="14.00" fill="#000000"> &#160;&#160;&#160;setGradeAndComment(_grade: uint, _comment: string)</text>
<text text-anchor="start" x="8" y="-425.1" font-family="Times,serif" font-size="14.00" fill="#000000"> &#160;&#160;&#160;setStatusInCorrection()</text>
</g>
<!-- 0&#45;&gt;1 -->
<g id="edge7" class="edge">
<title>0&#45;&gt;1</title>
<path fill="none" stroke="#000000" stroke-dasharray="5,2" d="M994.5512,-379.9701C969.9787,-390.6866 944.8298,-401.6545 919.5007,-412.7009"/>
<polygon fill="#000000" stroke="#000000" points="917.9286,-409.5681 910.1615,-416.7739 920.7269,-415.9845 917.9286,-409.5681"/>
</g>
<!-- 0enum0 -->
<g id="node2" class="node">
<title>0enum0</title>
<polygon fill="#f2f2f2" stroke="#000000" points="1252.5374,-.5 1252.5374,-83.7 1331.221,-83.7 1331.221,-.5 1252.5374,-.5"/>
<text text-anchor="middle" x="1291.8792" y="-67.1" font-family="Times,serif" font-size="14.00" fill="#000000">&lt;&lt;enum&gt;&gt;</text>
<text text-anchor="middle" x="1291.8792" y="-50.3" font-family="Times,serif" font-size="14.00" fill="#000000">UserType</text>
<polyline fill="none" stroke="#000000" points="1252.5374,-42.1 1331.221,-42.1 "/>
<text text-anchor="start" x="1260.5374" y="-25.5" font-family="Times,serif" font-size="14.00" fill="#000000">Professor</text>
<text text-anchor="start" x="1260.5374" y="-8.7" font-family="Times,serif" font-size="14.00" fill="#000000">Student</text>
</g>
<!-- 0enum0&#45;&gt;0 -->
<g id="edge1" class="edge">
<title>0enum0&#45;&gt;0</title>
<path fill="none" stroke="#000000" d="M1291.8792,-83.732C1291.8792,-91.3193 1291.8792,-99.6092 1291.8792,-108.3079"/>
<polygon fill="#000000" stroke="#000000" points="1291.8793,-108.3955 1295.8792,-114.3955 1291.8792,-120.3955 1287.8792,-114.3955 1291.8793,-108.3955"/>
</g>
<!-- 1struct0 -->
<g id="node4" class="node">
<title>1struct0</title>
<polygon fill="#f2f2f2" stroke="#000000" points="56.1862,-124.7 56.1862,-375.9 255.5722,-375.9 255.5722,-124.7 56.1862,-124.7"/>
<text text-anchor="middle" x="155.8792" y="-359.3" font-family="Times,serif" font-size="14.00" fill="#000000">&lt;&lt;struct&gt;&gt;</text>
<text text-anchor="middle" x="155.8792" y="-342.5" font-family="Times,serif" font-size="14.00" fill="#000000">ExamDetails</text>
<polyline fill="none" stroke="#000000" points="56.1862,-334.3 255.5722,-334.3 "/>
<text text-anchor="start" x="64.1862" y="-317.7" font-family="Times,serif" font-size="14.00" fill="#000000">description: string</text>
<text text-anchor="start" x="64.1862" y="-300.9" font-family="Times,serif" font-size="14.00" fill="#000000">subject: string</text>
<text text-anchor="start" x="64.1862" y="-284.1" font-family="Times,serif" font-size="14.00" fill="#000000">typeOfWork: string</text>
<text text-anchor="start" x="64.1862" y="-267.3" font-family="Times,serif" font-size="14.00" fill="#000000">typeOfSubmission: uint8</text>
<text text-anchor="start" x="64.1862" y="-250.5" font-family="Times,serif" font-size="14.00" fill="#000000">submissionTime: uint</text>
<text text-anchor="start" x="64.1862" y="-233.7" font-family="Times,serif" font-size="14.00" fill="#000000">grade: uint</text>
<text text-anchor="start" x="64.1862" y="-216.9" font-family="Times,serif" font-size="14.00" fill="#000000">comment: string</text>
<text text-anchor="start" x="64.1862" y="-200.1" font-family="Times,serif" font-size="14.00" fill="#000000">student: address[]</text>
<text text-anchor="start" x="64.1862" y="-183.3" font-family="Times,serif" font-size="14.00" fill="#000000">prof: address[]</text>
<text text-anchor="start" x="64.1862" y="-166.5" font-family="Times,serif" font-size="14.00" fill="#000000">status: ExamStatus</text>
<text text-anchor="start" x="64.1862" y="-149.7" font-family="Times,serif" font-size="14.00" fill="#000000">timestamp: mapping(uint=&gt;uint)</text>
<text text-anchor="start" x="64.1862" y="-132.9" font-family="Times,serif" font-size="14.00" fill="#000000">data: Data</text>
</g>
<!-- 1struct0&#45;&gt;1 -->
<g id="edge2" class="edge">
<title>1struct0&#45;&gt;1</title>
<path fill="none" stroke="#000000" d="M255.6253,-371.0411C258.3938,-374.2039 261.1486,-377.3285 263.8792,-380.4 271.9524,-389.4812 280.2634,-398.7072 288.7077,-407.982"/>
<polygon fill="#000000" stroke="#000000" points="288.7479,-408.0261 295.7479,-409.7584 296.8412,-416.8861 289.8412,-415.1538 288.7479,-408.0261"/>
</g>
<!-- 1struct1 -->
<g id="node5" class="node">
<title>1struct1</title>
<polygon fill="#f2f2f2" stroke="#000000" points="273.301,-208.7 273.301,-291.9 416.4574,-291.9 416.4574,-208.7 273.301,-208.7"/>
<text text-anchor="middle" x="344.8792" y="-275.3" font-family="Times,serif" font-size="14.00" fill="#000000">&lt;&lt;struct&gt;&gt;</text>
<text text-anchor="middle" x="344.8792" y="-258.5" font-family="Times,serif" font-size="14.00" fill="#000000">Data</text>
<polyline fill="none" stroke="#000000" points="273.301,-250.3 416.4574,-250.3 "/>
<text text-anchor="start" x="281.301" y="-233.7" font-family="Times,serif" font-size="14.00" fill="#000000">nameOfData: string</text>
<text text-anchor="start" x="281.301" y="-216.9" font-family="Times,serif" font-size="14.00" fill="#000000">ipfshashORlink: string</text>
</g>
<!-- 1struct1&#45;&gt;1 -->
<g id="edge3" class="edge">
<title>1struct1&#45;&gt;1</title>
<path fill="none" stroke="#000000" d="M360.5271,-292.0669C371.4552,-321.2359 386.9279,-362.5352 403.0641,-405.6056"/>
<polygon fill="#000000" stroke="#000000" points="403.0805,-405.6495 408.9313,-409.8647 407.2906,-416.8867 401.4398,-412.6715 403.0805,-405.6495"/>
</g>
<!-- 1enum0 -->
<g id="node6" class="node">
<title>1enum0</title>
<polygon fill="#f2f2f2" stroke="#000000" points="434.1148,-191.9 434.1148,-308.7 521.6436,-308.7 521.6436,-191.9 434.1148,-191.9"/>
<text text-anchor="middle" x="477.8792" y="-292.1" font-family="Times,serif" font-size="14.00" fill="#000000">&lt;&lt;enum&gt;&gt;</text>
<text text-anchor="middle" x="477.8792" y="-275.3" font-family="Times,serif" font-size="14.00" fill="#000000">ExamStatus</text>
<polyline fill="none" stroke="#000000" points="434.1148,-267.1 521.6436,-267.1 "/>
<text text-anchor="start" x="442.1148" y="-250.5" font-family="Times,serif" font-size="14.00" fill="#000000">ToSubmit</text>
<text text-anchor="start" x="442.1148" y="-233.7" font-family="Times,serif" font-size="14.00" fill="#000000">Submitted</text>
<text text-anchor="start" x="442.1148" y="-216.9" font-family="Times,serif" font-size="14.00" fill="#000000">InCorrection</text>
<text text-anchor="start" x="442.1148" y="-200.1" font-family="Times,serif" font-size="14.00" fill="#000000">Corrected</text>
</g>
<!-- 1enum0&#45;&gt;1 -->
<g id="edge4" class="edge">
<title>1enum0&#45;&gt;1</title>
<path fill="none" stroke="#000000" d="M477.8792,-308.921C477.8792,-335.7859 477.8792,-369.3748 477.8792,-404.1975"/>
<polygon fill="#000000" stroke="#000000" points="477.8793,-404.5572 481.8792,-410.5572 477.8792,-416.5572 473.8792,-410.5572 477.8793,-404.5572"/>
</g>
<!-- 1enum1 -->
<g id="node7" class="node">
<title>1enum1</title>
<polygon fill="#f2f2f2" stroke="#000000" points="540.0559,-183.5 540.0559,-317.1 651.7025,-317.1 651.7025,-183.5 540.0559,-183.5"/>
<text text-anchor="middle" x="595.8792" y="-300.5" font-family="Times,serif" font-size="14.00" fill="#000000">&lt;&lt;enum&gt;&gt;</text>
<text text-anchor="middle" x="595.8792" y="-283.7" font-family="Times,serif" font-size="14.00" fill="#000000">ExamTimestamp</text>
<polyline fill="none" stroke="#000000" points="540.0559,-275.5 651.7025,-275.5 "/>
<text text-anchor="start" x="548.0559" y="-258.9" font-family="Times,serif" font-size="14.00" fill="#000000">CreatedOn</text>
<text text-anchor="start" x="548.0559" y="-242.1" font-family="Times,serif" font-size="14.00" fill="#000000">UploadedOn</text>
<text text-anchor="start" x="548.0559" y="-225.3" font-family="Times,serif" font-size="14.00" fill="#000000">InCorrectionOn</text>
<text text-anchor="start" x="548.0559" y="-208.5" font-family="Times,serif" font-size="14.00" fill="#000000">GradedOn</text>
<text text-anchor="start" x="548.0559" y="-191.7" font-family="Times,serif" font-size="14.00" fill="#000000">CommentedOn</text>
</g>
<!-- 1enum1&#45;&gt;1 -->
<g id="edge5" class="edge">
<title>1enum1&#45;&gt;1</title>
<path fill="none" stroke="#000000" d="M573.5456,-317.4901C565.0658,-343.0014 554.9118,-373.5494 544.4346,-405.0697"/>
<polygon fill="#000000" stroke="#000000" points="544.3477,-405.3315 546.2509,-412.2869 540.5625,-416.7189 538.6593,-409.7635 544.3477,-405.3315"/>
</g>
<!-- 1enum2 -->
<g id="node8" class="node">
<title>1enum2</title>
<polygon fill="#f2f2f2" stroke="#000000" points="669.4402,-208.7 669.4402,-291.9 794.3182,-291.9 794.3182,-208.7 669.4402,-208.7"/>
<text text-anchor="middle" x="731.8792" y="-275.3" font-family="Times,serif" font-size="14.00" fill="#000000">&lt;&lt;enum&gt;&gt;</text>
<text text-anchor="middle" x="731.8792" y="-258.5" font-family="Times,serif" font-size="14.00" fill="#000000">TypeOfSubmission</text>
<polyline fill="none" stroke="#000000" points="669.4402,-250.3 794.3182,-250.3 "/>
<text text-anchor="start" x="677.4402" y="-233.7" font-family="Times,serif" font-size="14.00" fill="#000000">Upload</text>
<text text-anchor="start" x="677.4402" y="-216.9" font-family="Times,serif" font-size="14.00" fill="#000000">Link</text>
</g>
<!-- 1enum2&#45;&gt;1 -->
<g id="edge6" class="edge">
<title>1enum2&#45;&gt;1</title>
<path fill="none" stroke="#000000" d="M711.5199,-292.1584C698.2364,-318.2375 679.8846,-352.0945 660.8792,-380.4 655.0178,-389.1297 648.8945,-397.9321 642.591,-406.7373"/>
<polygon fill="#000000" stroke="#000000" points="642.4351,-406.953 642.1596,-414.1589 635.4021,-416.6761 635.6776,-409.4702 642.4351,-406.953"/>
</g>
</g>
</svg>
